<?xml version="1.0" encoding="utf-8"?>
<!-- Generator: Adobe Illustrator 18.0.0, SVG Export Plug-In . SVG Version: 6.00 Build 0)  -->
<!DOCTYPE svg PUBLIC "-//W3C//DTD SVG 1.1//EN" "http://www.w3.org/Graphics/SVG/1.1/DTD/svg11.dtd">
<svg version="1.1" id="Layer_1" xmlns="http://www.w3.org/2000/svg" xmlns:xlink="http://www.w3.org/1999/xlink" x="0px" y="0px"
	 viewBox="0 0 612 792" enable-background="new 0 0 612 792" xml:space="preserve">
<path d="M210.6,412l-8.3-8.3v-56c0-1.9-1.5-3.4-3.4-3.4h-11.9c-1.9,0-3.4,1.5-3.4,3.4v42.9h0l0,0c0,4.8-3.9,8.7-8.7,8.7h-45.1v0l0,0
	c-4.8,0-8.7-3.9-8.7-8.7v-42.9c0-1.9-1.5-3.4-3.4-3.4h-11.9c-1.9,0-3.4,1.5-3.4,3.4v42.9c0,15.1,12.3,27.4,27.4,27.4h0h60.5l7.1,7.1
	c1.3,1.3,3.5,1.3,4.8,0l8.4-8.4C211.9,415.5,211.9,413.3,210.6,412z"/>
<path d="M399.6,412l-8.3-8.3v-56c0-1.9-1.5-3.4-3.4-3.4h-11.9c-1.9,0-3.4,1.5-3.4,3.4v42.9h0l0,0c0,4.8-3.9,8.7-8.7,8.7h-45.1v0l0,0
	c-4.8,0-8.7-3.9-8.7-8.7v-42.9c0-1.9-1.5-3.4-3.4-3.4h-11.9c-1.9,0-3.4,1.5-3.4,3.4v42.9c0,15.1,12.3,27.4,27.4,27.4h0h60.5l7.1,7.1
	c1.3,1.3,3.5,1.3,4.8,0l8.4-8.4C400.9,415.5,400.9,413.3,399.6,412z"/>
<path d="M271.4,344.4h-51.6c-1.9,0-3.4,1.5-3.4,3.4v11.9c0,1.9,1.5,3.4,3.4,3.4h27.7v0l0,0c4.8,0,8.7,3.9,8.7,8.7v58.7h0l0,0
	c0,4.8-3.9,8.7-8.7,8.7h-58.1c-1.9,0-3.4,1.5-3.4,3.4v11.9c0,1.9,1.5,3.4,3.4,3.4h52.8l5.3,0v0c15.1,0,27.4-12.3,27.4-27.4v0h0
	v-82.7C274.8,345.9,273.2,344.4,271.4,344.4z"/>
<path d="M508.2,344.8l-8.4-8.4c-1.3-1.3-3.5-1.3-4.8,0l-8,8l-51.7,0c-15.1,0-27.4,12.3-27.4,27.4v0v18.9c0,15.1,12.3,27.4,27.4,27.4
	h0v0l27.7,0c1.9,0,3.4-1.5,3.4-3.4v-11.9c0-1.9-1.5-3.4-3.4-3.4h-27.7v0l0,0c-4.8,0-8.7-3.9-8.7-8.7v-18.9h0l0,0
	c0-4.8,3.9-8.7,8.7-8.7h37.5v0l0,0c4.8,0,8.7,3.9,8.7,8.7v58.7h0l0,0c0,4.8-3.9,8.7-8.7,8.7h-5.1l-41.2,0c-1.9,0-3.4,1.5-3.4,3.4
	v11.9c0,1.9,1.5,3.4,3.4,3.4h46.5v0c15-0.1,27.2-12.3,27.2-27.4v0v0v-72.9l8-8C509.5,348.3,509.5,346.1,508.2,344.8z"/>
</svg>
